# Blender v2.93.1 OBJ File: ''
# www.blender.org
mtllib redslimebody.mtl
o Cube_Cube.001
v 0.866528 1.759883 0.766698
v 1.325658 -1.480397 1.325658
v 0.877742 1.776997 -0.808853
v 1.325658 -1.480397 -1.325658
v -0.889363 1.542348 0.826834
v -1.325658 -1.480397 1.325658
v -0.882977 1.557143 -0.852900
v -1.578902 -1.478565 -1.601276
v 1.000000 1.653824 -0.600000
v 1.000000 1.653824 -0.200000
v 1.000000 1.653824 0.200000
v 1.000000 1.653824 0.600000
v 1.325658 0.166270 1.325658
v 1.325658 -0.245397 1.325658
v 1.325658 -0.657064 1.325658
v 1.325658 -1.068730 1.325658
v 1.914304 -1.491096 1.126493
v 1.914304 -1.491096 0.361056
v 1.605942 -1.490913 -0.321188
v 1.914304 -1.491096 -1.169817
v 1.325658 -1.068730 -1.325658
v 1.325658 -0.657064 -1.325658
v 1.325658 -0.245397 -1.325658
v 1.325658 0.166270 -1.325658
v -0.600000 1.653824 -1.000000
v -0.200000 1.653824 -1.000000
v 0.200000 1.653824 -1.000000
v 0.600000 1.653824 -1.000000
v 0.963565 -1.490913 -1.605942
v 0.383431 -1.491096 -1.935254
v -0.321189 -1.490913 -1.605942
v -1.147443 -1.491096 -1.935254
v -1.325658 -1.068730 -1.325658
v -1.325658 -0.657063 -1.325658
v -1.325658 -0.245397 -1.325658
v -1.325658 0.166270 -1.325658
v -1.000000 1.653824 0.600000
v -1.000000 1.653824 0.200000
v -1.000000 1.653824 -0.200000
v -1.000000 1.653824 -0.600000
v -1.605943 -1.490913 -0.963565
v -1.912880 -1.491096 -0.404381
v -1.605943 -1.490913 0.321189
v -1.912880 -1.491096 1.126493
v -1.325658 -1.068730 1.325658
v -1.325658 -0.657063 1.325658
v -1.325658 -0.245397 1.325658
v -1.325658 0.166270 1.325658
v 0.600000 1.653824 1.000000
v 0.200000 1.653824 1.000000
v -0.200000 1.653824 1.000000
v -0.600000 1.653824 1.000000
v -1.147443 -1.491096 1.891930
v -0.321189 -1.490913 1.605942
v 0.383431 -1.491096 1.891930
v 1.148867 -1.491096 1.891930
v -0.600000 -1.653824 -0.600000
v -0.600000 -1.653824 -0.200000
v -0.600000 -1.653824 0.200000
v -0.600000 -1.653824 0.600000
v -0.200000 -1.653824 -0.600000
v -0.200000 -1.653824 -0.200000
v -0.200000 -1.653824 0.200000
v -0.200000 -1.653824 0.600000
v 0.200000 -1.653824 -0.600000
v 0.200000 -1.653824 -0.200000
v 0.200000 -1.653824 0.200000
v 0.200000 -1.653824 0.600000
v 0.600000 -1.653824 -0.600000
v 0.600000 -1.653824 -0.200000
v 0.600000 -1.653824 0.200000
v 0.600000 -1.653824 0.600000
v 0.600000 2.057115 -0.600000
v 0.600000 2.276413 -0.200000
v 0.600000 2.276413 0.200000
v 0.600000 1.992037 0.600000
v 0.200000 2.276413 -0.600000
v 0.200000 2.704686 -0.200000
v 0.200000 2.704686 0.200000
v 0.200000 2.276413 0.600000
v -0.200000 2.276413 -0.600000
v -0.200000 2.704686 -0.200000
v -0.200000 2.704686 0.200000
v -0.200000 2.276413 0.600000
v -0.600000 2.084109 -0.600000
v -0.600000 2.276413 -0.200000
v -0.600000 2.276413 0.200000
v -0.600000 2.011840 0.600000
v -0.963565 0.176786 1.605942
v -0.321189 0.176786 1.459852
v 0.321189 0.176786 1.459852
v 0.963565 0.176786 1.605942
v -0.963566 -0.240138 1.605942
v -0.321189 -0.240138 1.459852
v 0.321188 -0.240138 1.605942
v 0.963565 -0.240139 1.605942
v -0.963566 -0.657063 1.605942
v -0.321189 -0.657063 1.605942
v 0.321188 -0.657063 1.605942
v 0.963565 -0.657063 1.605942
v -0.963566 -1.073988 1.605942
v -0.321189 -1.073988 1.605942
v 0.321188 -1.073988 1.605942
v 0.963565 -1.073988 1.605942
v -1.605942 0.636122 -0.963565
v -1.331664 1.208572 -0.321188
v -1.605942 0.176787 0.321189
v -1.605942 0.176787 0.963565
v -1.605942 -0.240138 -0.963565
v -1.605942 -0.240138 -0.321188
v -1.605942 -0.240138 0.321189
v -1.605942 -0.240138 0.963565
v -1.605942 -0.657063 -0.963565
v -1.605942 -0.657063 -0.321188
v -1.605942 -0.657063 0.321189
v -1.605942 -0.657063 0.963565
v -1.605942 -1.073988 -0.963565
v -1.605942 -1.073988 -0.321188
v -1.605942 -1.073988 0.321189
v -1.605942 -1.073988 0.963565
v 0.963566 0.671629 -1.442840
v 0.321189 0.920641 -1.416800
v -0.321189 0.659921 -1.605942
v -0.963565 0.811564 -1.351468
v 0.963565 -0.240139 -1.605942
v 0.321188 -0.240138 -1.605942
v -0.321189 -0.240138 -1.605942
v -0.963566 0.052094 -1.605942
v 0.963565 -0.657063 -1.605942
v 0.321188 -0.657063 -1.605942
v -0.321189 -0.657063 -1.605942
v -0.963566 -0.657063 -1.605942
v 0.963565 -1.073988 -1.605942
v 0.321188 -1.073988 -1.605942
v -0.321189 -1.073988 -1.605942
v -0.963566 -1.073988 -1.605942
v 1.345441 0.176786 0.963565
v 1.605942 0.176786 0.321189
v 1.502432 0.176786 -0.321188
v 1.605942 0.176786 -0.963565
v 1.605942 -0.240139 0.963565
v 1.605942 -0.240139 0.321189
v 1.502432 -0.240139 -0.321188
v 1.605942 -0.240139 -0.963565
v 1.605942 -0.657064 0.963565
v 1.605942 -0.657064 0.321189
v 1.605942 -0.657064 -0.321188
v 1.605942 -0.657064 -0.963565
v 1.605942 -1.073988 0.963565
v 1.605942 -1.073988 0.321189
v 1.605942 -1.073988 -0.321188
v 1.605942 -1.073988 -0.963565
vt 0.575000 0.200000
vt 0.625000 0.200000
vt 0.625000 0.250000
vt 0.575000 0.250000
vt 0.575000 0.450000
vt 0.625000 0.450000
vt 0.625000 0.500000
vt 0.575000 0.500000
vt 0.575000 0.700000
vt 0.625000 0.700000
vt 0.625000 0.750000
vt 0.575000 0.750000
vt 0.575000 0.950000
vt 0.625000 0.950000
vt 0.625000 1.000000
vt 0.575000 1.000000
vt 0.325000 0.700000
vt 0.375000 0.700000
vt 0.375000 0.750000
vt 0.325000 0.750000
vt 0.825000 0.700000
vt 0.875000 0.700000
vt 0.875000 0.750000
vt 0.825000 0.750000
vt 0.675000 0.700000
vt 0.675000 0.750000
vt 0.725000 0.700000
vt 0.725000 0.750000
vt 0.775000 0.700000
vt 0.775000 0.750000
vt 0.675000 0.500000
vt 0.675000 0.550000
vt 0.625000 0.550000
vt 0.675000 0.600000
vt 0.625000 0.600000
vt 0.675000 0.650000
vt 0.625000 0.650000
vt 0.725000 0.500000
vt 0.725000 0.550000
vt 0.725000 0.600000
vt 0.725000 0.650000
vt 0.775000 0.500000
vt 0.775000 0.550000
vt 0.775000 0.600000
vt 0.775000 0.650000
vt 0.825000 0.500000
vt 0.825000 0.550000
vt 0.825000 0.600000
vt 0.825000 0.650000
vt 0.875000 0.500000
vt 0.875000 0.550000
vt 0.875000 0.600000
vt 0.875000 0.650000
vt 0.125000 0.700000
vt 0.175000 0.700000
vt 0.175000 0.750000
vt 0.125000 0.750000
vt 0.225000 0.700000
vt 0.225000 0.750000
vt 0.275000 0.700000
vt 0.275000 0.750000
vt 0.125000 0.500000
vt 0.175000 0.500000
vt 0.175000 0.550000
vt 0.125000 0.550000
vt 0.175000 0.600000
vt 0.125000 0.600000
vt 0.175000 0.650000
vt 0.125000 0.650000
vt 0.225000 0.500000
vt 0.225000 0.550000
vt 0.225000 0.600000
vt 0.225000 0.650000
vt 0.275000 0.500000
vt 0.275000 0.550000
vt 0.275000 0.600000
vt 0.275000 0.650000
vt 0.325000 0.500000
vt 0.325000 0.550000
vt 0.325000 0.600000
vt 0.325000 0.650000
vt 0.375000 0.500000
vt 0.375000 0.550000
vt 0.375000 0.600000
vt 0.375000 0.650000
vt 0.375000 0.950000
vt 0.425000 0.950000
vt 0.425000 1.000000
vt 0.375000 1.000000
vt 0.475000 0.950000
vt 0.475000 1.000000
vt 0.525000 0.950000
vt 0.525000 1.000000
vt 0.425000 0.750000
vt 0.425000 0.800000
vt 0.375000 0.800000
vt 0.425000 0.850000
vt 0.375000 0.850000
vt 0.425000 0.900000
vt 0.375000 0.900000
vt 0.475000 0.750000
vt 0.475000 0.800000
vt 0.475000 0.850000
vt 0.475000 0.900000
vt 0.525000 0.750000
vt 0.525000 0.800000
vt 0.525000 0.850000
vt 0.525000 0.900000
vt 0.575000 0.800000
vt 0.575000 0.850000
vt 0.575000 0.900000
vt 0.625000 0.800000
vt 0.625000 0.850000
vt 0.625000 0.900000
vt 0.425000 0.700000
vt 0.475000 0.700000
vt 0.525000 0.700000
vt 0.425000 0.500000
vt 0.425000 0.550000
vt 0.425000 0.600000
vt 0.425000 0.650000
vt 0.475000 0.500000
vt 0.475000 0.550000
vt 0.475000 0.600000
vt 0.475000 0.650000
vt 0.525000 0.500000
vt 0.525000 0.550000
vt 0.525000 0.600000
vt 0.525000 0.650000
vt 0.575000 0.550000
vt 0.575000 0.600000
vt 0.575000 0.650000
vt 0.375000 0.450000
vt 0.425000 0.450000
vt 0.475000 0.450000
vt 0.525000 0.450000
vt 0.375000 0.250000
vt 0.425000 0.250000
vt 0.425000 0.300000
vt 0.375000 0.300000
vt 0.425000 0.350000
vt 0.375000 0.350000
vt 0.425000 0.400000
vt 0.375000 0.400000
vt 0.475000 0.250000
vt 0.475000 0.300000
vt 0.475000 0.350000
vt 0.475000 0.400000
vt 0.525000 0.250000
vt 0.525000 0.300000
vt 0.525000 0.350000
vt 0.525000 0.400000
vt 0.575000 0.300000
vt 0.575000 0.350000
vt 0.575000 0.400000
vt 0.625000 0.300000
vt 0.625000 0.350000
vt 0.625000 0.400000
vt 0.375000 0.200000
vt 0.425000 0.200000
vt 0.475000 0.200000
vt 0.525000 0.200000
vt 0.375000 0.000000
vt 0.425000 0.000000
vt 0.425000 0.050000
vt 0.375000 0.050000
vt 0.425000 0.100000
vt 0.375000 0.100000
vt 0.425000 0.150000
vt 0.375000 0.150000
vt 0.475000 0.000000
vt 0.475000 0.050000
vt 0.475000 0.100000
vt 0.475000 0.150000
vt 0.525000 0.000000
vt 0.525000 0.050000
vt 0.525000 0.100000
vt 0.525000 0.150000
vt 0.575000 0.000000
vt 0.575000 0.050000
vt 0.575000 0.100000
vt 0.575000 0.150000
vt 0.625000 0.000000
vt 0.625000 0.050000
vt 0.625000 0.100000
vt 0.625000 0.150000
vn 0.4796 0.3758 -0.7930
vn -0.4450 0.6699 -0.5943
vn -0.5143 0.3448 0.7852
vn 0.7869 0.3511 0.5075
vn -0.5582 0.6138 0.5582
vn 0.1178 -0.9860 0.1178
vn -0.1178 -0.9860 0.1178
vn 0.0352 -0.9880 0.1503
vn -0.0367 -0.9893 0.1412
vn -0.0000 -0.9922 0.1250
vn -0.1198 -0.9912 -0.0564
vn -0.1290 -0.9908 -0.0415
vn -0.1403 -0.9894 0.0384
vn -0.1494 -0.9880 -0.0382
vn 0.0401 -0.9880 -0.1489
vn -0.0000 -1.0000 0.0000
vn -0.0415 -0.9895 -0.1387
vn 0.0431 -0.9909 -0.1277
vn 0.0738 -0.9841 -0.1614
vn 0.1497 -0.9880 0.0371
vn 0.1395 -0.9894 -0.0399
vn 0.1229 -0.9924 0.0000
vn 0.4271 0.7970 0.4271
vn 0.2218 0.6239 0.7493
vn 0.0000 0.5405 0.8413
vn -0.2046 0.6188 0.7585
vn 0.4464 0.7755 -0.4464
vn 0.7776 0.6064 -0.1662
vn 0.8413 0.5405 0.0000
vn 0.7493 0.6239 0.2218
vn 0.1662 0.6064 -0.7776
vn 0.5325 0.6579 -0.5325
vn 0.7308 0.6826 0.0000
vn 0.5538 0.6217 0.5538
vn 0.0000 0.5405 -0.8413
vn 0.0000 0.6826 -0.7308
vn 0.0000 1.0000 0.0000
vn 0.0000 0.6826 0.7308
vn -0.1439 0.5987 -0.7879
vn -0.5226 0.6737 -0.5226
vn -0.7308 0.6826 0.0000
vn -0.5477 0.6324 0.5477
vn -0.5741 0.5838 -0.5741
vn -0.7879 0.5987 -0.1439
vn -0.8413 0.5405 0.0000
vn -0.7585 0.6188 0.2046
vn 0.5346 0.4212 0.7327
vn 0.6121 -0.0000 0.7908
vn -0.5685 0.4308 0.7009
vn 0.1316 0.3172 0.9392
vn 0.0000 0.2973 0.9548
vn -0.1316 0.3172 0.9392
vn -0.6121 0.0000 0.7908
vn 0.2218 0.0000 0.9751
vn -0.1113 0.1715 0.9789
vn 0.1113 0.1715 0.9789
vn 0.0000 0.0000 1.0000
vn -0.7866 0.3500 0.5086
vn 0.1833 0.2825 0.9416
vn -0.1978 0.3047 0.9317
vn 0.0000 0.5655 0.8248
vn -0.7095 0.4283 0.5597
vn -0.7908 0.0000 0.6121
vn -0.4816 0.4672 -0.7415
vn -0.8248 0.5583 -0.0896
vn -0.8818 0.4301 0.1937
vn -0.9252 0.3795 0.0000
vn -0.7908 0.0000 -0.6121
vn -0.9807 0.1157 0.1578
vn -0.9850 0.1448 -0.0940
vn -1.0000 0.0000 0.0000
vn -0.8925 0.3627 -0.2680
vn -0.9053 0.3562 -0.2312
vn -0.9246 0.3196 0.2074
vn -0.9319 0.3043 -0.1975
vn -0.6796 0.4571 -0.5738
vn -0.5676 0.1748 -0.8045
vn -0.6121 0.0000 -0.7908
vn 0.5885 0.4361 -0.6807
vn 0.0894 0.4663 -0.8801
vn 0.0287 0.5093 -0.8601
vn -0.1398 0.4866 -0.8624
vn 0.5336 0.1034 -0.8394
vn 0.0125 0.1675 -0.9858
vn 0.1270 0.0907 -0.9877
vn -0.1420 0.1500 -0.9784
vn 0.6121 -0.0000 -0.7908
vn 0.0000 0.0000 -1.0000
vn 0.2414 0.3719 -0.8963
vn -0.2230 0.3436 -0.9123
vn 0.2073 0.3194 -0.9247
vn 0.7837 0.4024 -0.4732
vn 0.7908 0.0000 -0.6121
vn 0.9275 0.3071 0.2133
vn 0.9151 0.3322 0.2287
vn 0.9322 0.3498 -0.0926
vn 0.9371 0.3363 0.0931
vn 0.8852 0.2783 0.3728
vn 0.9371 0.2928 0.1900
vn 0.9873 0.0000 -0.1591
vn 0.9873 0.0000 0.1591
vn 0.7908 -0.0000 0.6121
vn 1.0000 -0.0000 0.0000
vn 0.9892 0.1228 -0.0797
vn 0.9892 0.1228 0.0797
vn 0.5136 0.3455 0.7854
vn 0.8041 0.5945 0.0000
vn 0.9195 0.3297 -0.2140
vn 0.9348 0.2978 0.1933
usemtl Material.001
s off
f 152/1/1 20/2/1 4/3/1 21/4/1
f 136/5/2 32/6/2 8/7/2 33/8/2
f 120/9/3 44/10/3 6/11/3 45/12/3
f 104/13/4 56/14/4 2/15/4 16/16/4
f 88/17/5 37/18/5 5/19/5 52/20/5
f 72/21/6 17/22/6 2/23/6 56/24/6
f 44/10/7 60/25/7 53/26/7 6/11/7
f 60/25/8 64/27/8 54/28/8 53/26/8
f 64/27/9 68/29/9 55/30/9 54/28/9
f 68/29/10 72/21/10 56/24/10 55/30/10
f 8/7/11 32/31/11 57/32/11 41/33/11
f 41/33/12 57/32/12 58/34/12 42/35/12
f 42/35/13 58/34/13 59/36/13 43/37/13
f 43/37/14 59/36/14 60/25/14 44/10/14
f 32/31/15 31/38/15 61/39/15 57/32/15
f 57/32/16 61/39/16 62/40/16 58/34/16
f 58/34/16 62/40/16 63/41/16 59/36/16
f 59/36/16 63/41/16 64/27/16 60/25/16
f 31/38/17 30/42/17 65/43/17 61/39/17
f 61/39/16 65/43/16 66/44/16 62/40/16
f 62/40/16 66/44/16 67/45/16 63/41/16
f 63/41/16 67/45/16 68/29/16 64/27/16
f 30/42/18 29/46/18 69/47/18 65/43/18
f 65/43/16 69/47/16 70/48/16 66/44/16
f 66/44/16 70/48/16 71/49/16 67/45/16
f 67/45/16 71/49/16 72/21/16 68/29/16
f 29/46/19 4/50/19 20/51/19 69/47/19
f 69/47/20 20/51/20 19/52/20 70/48/20
f 70/48/21 19/52/21 18/53/21 71/49/21
f 71/49/22 18/53/22 17/22/22 72/21/22
f 12/54/23 76/55/23 49/56/23 1/57/23
f 76/55/24 80/58/24 50/59/24 49/56/24
f 80/58/25 84/60/25 51/61/25 50/59/25
f 84/60/26 88/17/26 52/20/26 51/61/26
f 3/62/27 28/63/27 73/64/27 9/65/27
f 9/65/28 73/64/28 74/66/28 10/67/28
f 10/67/29 74/66/29 75/68/29 11/69/29
f 11/69/30 75/68/30 76/55/30 12/54/30
f 28/63/31 27/70/31 77/71/31 73/64/31
f 73/64/32 77/71/32 78/72/32 74/66/32
f 74/66/33 78/72/33 79/73/33 75/68/33
f 75/68/34 79/73/34 80/58/34 76/55/34
f 27/70/35 26/74/35 81/75/35 77/71/35
f 77/71/36 81/75/36 82/76/36 78/72/36
f 78/72/37 82/76/37 83/77/37 79/73/37
f 79/73/38 83/77/38 84/60/38 80/58/38
f 26/74/39 25/78/39 85/79/39 81/75/39
f 81/75/40 85/79/40 86/80/40 82/76/40
f 82/76/41 86/80/41 87/81/41 83/77/41
f 83/77/42 87/81/42 88/17/42 84/60/42
f 25/78/43 7/82/43 40/83/43 85/79/43
f 85/79/44 40/83/44 39/84/44 86/80/44
f 86/80/45 39/84/45 38/85/45 87/81/45
f 87/81/46 38/85/46 37/18/46 88/17/46
f 49/86/47 92/87/47 13/88/47 1/89/47
f 92/87/48 96/90/48 14/91/48 13/88/48
f 96/90/48 100/92/48 15/93/48 14/91/48
f 100/92/48 104/13/48 16/16/48 15/93/48
f 5/19/49 48/94/49 89/95/49 52/96/49
f 52/96/50 89/95/50 90/97/50 51/98/50
f 51/98/51 90/97/51 91/99/51 50/100/51
f 50/100/52 91/99/52 92/87/52 49/86/52
f 48/94/53 47/101/53 93/102/53 89/95/53
f 89/95/54 93/102/54 94/103/54 90/97/54
f 90/97/55 94/103/55 95/104/55 91/99/55
f 91/99/55 95/104/55 96/90/55 92/87/55
f 47/101/53 46/105/53 97/106/53 93/102/53
f 93/102/56 97/106/56 98/107/56 94/103/56
f 94/103/55 98/107/55 99/108/55 95/104/55
f 95/104/57 99/108/57 100/92/57 96/90/57
f 46/105/53 45/12/53 101/109/53 97/106/53
f 97/106/57 101/109/57 102/110/57 98/107/57
f 98/107/57 102/110/57 103/111/57 99/108/57
f 99/108/57 103/111/57 104/13/57 100/92/57
f 45/12/58 6/11/58 53/112/58 101/109/58
f 101/109/59 53/112/59 54/113/59 102/110/59
f 102/110/60 54/113/60 55/114/60 103/111/60
f 103/111/61 55/114/61 56/14/61 104/13/61
f 37/18/62 108/115/62 48/94/62 5/19/62
f 108/115/63 112/116/63 47/101/63 48/94/63
f 112/116/63 116/117/63 46/105/63 47/101/63
f 116/117/63 120/9/63 45/12/63 46/105/63
f 7/82/64 36/118/64 105/119/64 40/83/64
f 40/83/65 105/119/65 106/120/65 39/84/65
f 39/84/66 106/120/66 107/121/66 38/85/66
f 38/85/67 107/121/67 108/115/67 37/18/67
f 36/118/68 35/122/68 109/123/68 105/119/68
f 105/119/69 109/123/69 110/124/69 106/120/69
f 106/120/70 110/124/70 111/125/70 107/121/70
f 107/121/71 111/125/71 112/116/71 108/115/71
f 35/122/68 34/126/68 113/127/68 109/123/68
f 109/123/71 113/127/71 114/128/71 110/124/71
f 110/124/71 114/128/71 115/129/71 111/125/71
f 111/125/71 115/129/71 116/117/71 112/116/71
f 34/126/68 33/8/68 117/130/68 113/127/68
f 113/127/71 117/130/71 118/131/71 114/128/71
f 114/128/71 118/131/71 119/132/71 115/129/71
f 115/129/71 119/132/71 120/9/71 116/117/71
f 33/8/72 8/7/72 41/33/72 117/130/72
f 117/130/73 41/33/73 42/35/73 118/131/73
f 118/131/74 42/35/74 43/37/74 119/132/74
f 119/132/75 43/37/75 44/10/75 120/9/75
f 25/133/76 124/134/76 36/118/76 7/82/76
f 124/134/77 128/135/77 35/122/77 36/118/77
f 128/135/78 132/136/78 34/126/78 35/122/78
f 132/136/78 136/5/78 33/8/78 34/126/78
f 3/137/79 24/138/79 121/139/79 28/140/79
f 28/140/80 121/139/80 122/141/80 27/142/80
f 27/142/81 122/141/81 123/143/81 26/144/81
f 26/144/82 123/143/82 124/134/82 25/133/82
f 24/138/83 23/145/83 125/146/83 121/139/83
f 121/139/84 125/146/84 126/147/84 122/141/84
f 122/141/85 126/147/85 127/148/85 123/143/85
f 123/143/86 127/148/86 128/135/86 124/134/86
f 23/145/87 22/149/87 129/150/87 125/146/87
f 125/146/88 129/150/88 130/151/88 126/147/88
f 126/147/88 130/151/88 131/152/88 127/148/88
f 127/148/88 131/152/88 132/136/88 128/135/88
f 22/149/87 21/4/87 133/153/87 129/150/87
f 129/150/88 133/153/88 134/154/88 130/151/88
f 130/151/88 134/154/88 135/155/88 131/152/88
f 131/152/88 135/155/88 136/5/88 132/136/88
f 21/4/87 4/3/87 29/156/87 133/153/87
f 133/153/89 29/156/89 30/157/89 134/154/89
f 134/154/90 30/157/90 31/158/90 135/155/90
f 135/155/91 31/158/91 32/6/91 136/5/91
f 9/159/92 140/160/92 24/138/92 3/137/92
f 140/160/93 144/161/93 23/145/93 24/138/93
f 144/161/93 148/162/93 22/149/93 23/145/93
f 148/162/93 152/1/93 21/4/93 22/149/93
f 1/163/94 13/164/94 137/165/94 12/166/94
f 12/166/95 137/165/95 138/167/95 11/168/95
f 11/168/96 138/167/96 139/169/96 10/170/96
f 10/170/97 139/169/97 140/160/97 9/159/97
f 13/164/98 14/171/98 141/172/98 137/165/98
f 137/165/99 141/172/99 142/173/99 138/167/99
f 138/167/100 142/173/100 143/174/100 139/169/100
f 139/169/101 143/174/101 144/161/101 140/160/101
f 14/171/102 15/175/102 145/176/102 141/172/102
f 141/172/103 145/176/103 146/177/103 142/173/103
f 142/173/104 146/177/104 147/178/104 143/174/104
f 143/174/105 147/178/105 148/162/105 144/161/105
f 15/175/102 16/179/102 149/180/102 145/176/102
f 145/176/103 149/180/103 150/181/103 146/177/103
f 146/177/103 150/181/103 151/182/103 147/178/103
f 147/178/103 151/182/103 152/1/103 148/162/103
f 16/179/106 2/183/106 17/184/106 149/180/106
f 149/180/107 17/184/107 18/185/107 150/181/107
f 150/181/108 18/185/108 19/186/108 151/182/108
f 151/182/109 19/186/109 20/2/109 152/1/109
