# Blender v2.93.1 OBJ File: ''
# www.blender.org
mtllib face.mtl
o Cylinder_Cylinder.001
v 0.627917 1.444735 -1.321360
v 0.627917 1.444735 -0.868764
v 0.823897 1.331586 -0.868764
v 0.823897 1.331586 -1.321360
v 0.823897 1.105288 -0.868764
v 0.823897 1.105288 -1.321360
v 0.627917 0.992139 -0.868764
v 0.627917 0.992139 -1.321360
v 0.431937 1.105288 -0.868764
v 0.431937 1.105288 -1.321360
v 0.431937 1.331586 -0.868764
v 0.431937 1.331586 -1.321360
vt 1.000000 0.500000
vt 1.000000 1.000000
vt 0.833333 1.000000
vt 0.833333 0.500000
vt 0.666667 1.000000
vt 0.666667 0.500000
vt 0.500000 1.000000
vt 0.500000 0.500000
vt 0.333333 1.000000
vt 0.333333 0.500000
vt 0.457846 0.370000
vt 0.250000 0.490000
vt 0.042154 0.370000
vt 0.042154 0.130000
vt 0.250000 0.010000
vt 0.457846 0.130000
vt 0.166667 1.000000
vt 0.166667 0.500000
vt -0.000000 1.000000
vt -0.000000 0.500000
vt 0.750000 0.490000
vt 0.957846 0.370000
vt 0.957846 0.130000
vt 0.750000 0.010000
vt 0.542154 0.130000
vt 0.542154 0.370000
vn 0.5000 0.8660 0.0000
vn 1.0000 0.0000 0.0000
vn 0.5000 -0.8660 0.0000
vn -0.5000 -0.8660 0.0000
vn 0.0000 -0.0000 1.0000
vn -1.0000 0.0000 0.0000
vn -0.5000 0.8660 0.0000
vn 0.0000 0.0000 -1.0000
usemtl (null)
s 1
f 1/1/1 2/2/1 3/3/1 4/4/1
f 4/4/2 3/3/2 5/5/2 6/6/2
f 6/6/3 5/5/3 7/7/3 8/8/3
f 8/8/4 7/7/4 9/9/4 10/10/4
f 3/11/5 2/12/5 11/13/5 9/14/5 7/15/5 5/16/5
f 10/10/6 9/9/6 11/17/6 12/18/6
f 12/18/7 11/17/7 2/19/7 1/20/7
f 1/21/8 4/22/8 6/23/8 8/24/8 10/25/8 12/26/8
o Cylinder.001_Cylinder.002
v -0.692043 1.444735 -1.321360
v -0.692043 1.444735 -0.868764
v -0.496063 1.331586 -0.868764
v -0.496063 1.331586 -1.321360
v -0.496063 1.105288 -0.868764
v -0.496063 1.105288 -1.321360
v -0.692043 0.992139 -0.868764
v -0.692043 0.992139 -1.321360
v -0.888023 1.105288 -0.868764
v -0.888023 1.105288 -1.321360
v -0.888023 1.331586 -0.868764
v -0.888023 1.331586 -1.321360
vt 1.000000 0.500000
vt 1.000000 1.000000
vt 0.833333 1.000000
vt 0.833333 0.500000
vt 0.666667 1.000000
vt 0.666667 0.500000
vt 0.500000 1.000000
vt 0.500000 0.500000
vt 0.333333 1.000000
vt 0.333333 0.500000
vt 0.457846 0.370000
vt 0.250000 0.490000
vt 0.042154 0.370000
vt 0.042154 0.130000
vt 0.250000 0.010000
vt 0.457846 0.130000
vt 0.166667 1.000000
vt 0.166667 0.500000
vt -0.000000 1.000000
vt -0.000000 0.500000
vt 0.750000 0.490000
vt 0.957846 0.370000
vt 0.957846 0.130000
vt 0.750000 0.010000
vt 0.542154 0.130000
vt 0.542154 0.370000
vn 0.5000 0.8660 0.0000
vn 1.0000 0.0000 0.0000
vn 0.5000 -0.8660 0.0000
vn -0.5000 -0.8660 0.0000
vn 0.0000 -0.0000 1.0000
vn -1.0000 0.0000 0.0000
vn -0.5000 0.8660 0.0000
vn 0.0000 0.0000 -1.0000
usemtl (null)
s 1
f 13/27/9 14/28/9 15/29/9 16/30/9
f 16/30/10 15/29/10 17/31/10 18/32/10
f 18/32/11 17/31/11 19/33/11 20/34/11
f 20/34/12 19/33/12 21/35/12 22/36/12
f 15/37/13 14/38/13 23/39/13 21/40/13 19/41/13 17/42/13
f 22/36/14 21/35/14 23/43/14 24/44/14
f 24/44/15 23/43/15 14/45/15 13/46/15
f 13/47/16 16/48/16 18/49/16 20/50/16 22/51/16 24/52/16
o Cube.001_Cube.002
v -0.516824 0.206763 -1.440942
v -0.516824 0.376650 -1.440942
v -0.516824 0.376650 -1.631042
v -0.516824 0.206763 -1.631042
v 0.258412 0.402511 -1.631042
v 0.258412 0.572398 -1.631042
v 0.516824 0.376650 -1.631042
v 0.516824 0.206763 -1.631042
v 0.516824 0.376650 -1.440942
v 0.516824 0.206763 -1.440942
v -0.258412 0.391328 -1.440942
v -0.258412 0.561215 -1.440942
v 0.258412 0.402511 -1.440942
v -0.258412 0.561215 -1.631042
v 0.000000 0.601460 -1.631042
v 0.000000 0.601460 -1.440942
v 0.258412 0.572398 -1.440942
v -0.258412 0.391328 -1.631042
v 0.000000 0.431573 -1.631042
v 0.000000 0.431573 -1.440942
vt 0.375000 0.000000
vt 0.625000 0.000000
vt 0.625000 0.250000
vt 0.375000 0.250000
vt 0.375000 0.437500
vt 0.625000 0.437500
vt 0.625000 0.500000
vt 0.375000 0.500000
vt 0.625000 0.750000
vt 0.375000 0.750000
vt 0.375000 0.937500
vt 0.625000 0.937500
vt 0.625000 1.000000
vt 0.375000 1.000000
vt 0.312500 0.500000
vt 0.312500 0.750000
vt 0.812500 0.500000
vt 0.875000 0.500000
vt 0.875000 0.750000
vt 0.812500 0.750000
vt 0.687500 0.500000
vt 0.750000 0.500000
vt 0.750000 0.750000
vt 0.687500 0.750000
vt 0.187500 0.500000
vt 0.250000 0.500000
vt 0.250000 0.750000
vt 0.187500 0.750000
vt 0.375000 0.812500
vt 0.625000 0.812500
vt 0.625000 0.875000
vt 0.375000 0.875000
vt 0.375000 0.312500
vt 0.625000 0.312500
vt 0.625000 0.375000
vt 0.375000 0.375000
vt 0.125000 0.500000
vt 0.125000 0.750000
vn -1.0000 -0.0000 0.0000
vn -0.0000 0.0000 -1.0000
vn 1.0000 0.0000 0.0000
vn 0.0000 -0.0000 1.0000
vn -0.6038 -0.7971 0.0000
vn -0.5812 0.8138 0.0000
vn 0.1118 0.9937 0.0000
vn 0.1539 -0.9881 -0.0000
vn 0.6038 0.7971 0.0000
vn -0.1118 -0.9937 0.0000
vn 0.5812 -0.8138 -0.0000
vn -0.1539 0.9881 0.0000
usemtl (null)
s 1
f 25/53/17 26/54/17 27/55/17 28/56/17
f 29/57/18 30/58/18 31/59/18 32/60/18
f 32/60/19 31/59/19 33/61/19 34/62/19
f 35/63/20 36/64/20 26/65/20 25/66/20
f 29/67/21 32/60/21 34/62/21 37/68/21
f 38/69/22 27/70/22 26/71/22 36/72/22
f 30/73/23 39/74/23 40/75/23 41/76/23
f 42/77/24 43/78/24 44/79/24 35/80/24
f 37/81/20 41/82/20 40/83/20 44/84/20
f 42/85/18 38/86/18 39/87/18 43/88/18
f 34/62/20 33/61/20 41/82/20 37/81/20
f 31/59/25 30/73/25 41/76/25 33/61/25
f 43/78/26 29/67/26 37/68/26 44/79/26
f 43/88/18 39/87/18 30/58/18 29/57/18
f 28/56/18 27/55/18 38/86/18 42/85/18
f 28/89/27 42/77/27 35/80/27 25/90/27
f 39/74/28 38/69/28 36/72/28 40/75/28
f 44/84/20 40/83/20 36/64/20 35/63/20
o Cube.002_Cube.003
v 0.342403 1.267504 -1.123293
v 0.291726 1.341516 -1.122624
v 0.293055 1.343333 -1.222973
v 0.343732 1.269321 -1.223641
v 0.623047 1.585751 -1.214214
v 0.572370 1.659763 -1.213545
v 0.743329 1.651534 -1.211430
v 0.794006 1.577522 -1.212098
v 0.742000 1.649718 -1.111081
v 0.792677 1.575706 -1.111750
v 0.399916 1.424961 -1.119681
v 0.349240 1.498973 -1.119012
v 0.621717 1.583934 -1.113865
v 0.350569 1.500790 -1.219361
v 0.451132 1.595373 -1.216317
v 0.449803 1.593557 -1.115968
v 0.571041 1.657946 -1.113196
v 0.401245 1.426778 -1.220029
v 0.501809 1.521361 -1.216985
v 0.500480 1.519545 -1.116636
vt 0.375000 0.000000
vt 0.625000 0.000000
vt 0.625000 0.250000
vt 0.375000 0.250000
vt 0.375000 0.437500
vt 0.625000 0.437500
vt 0.625000 0.500000
vt 0.375000 0.500000
vt 0.625000 0.750000
vt 0.375000 0.750000
vt 0.375000 0.937500
vt 0.625000 0.937500
vt 0.625000 1.000000
vt 0.375000 1.000000
vt 0.312500 0.500000
vt 0.312500 0.750000
vt 0.812500 0.500000
vt 0.875000 0.500000
vt 0.875000 0.750000
vt 0.812500 0.750000
vt 0.687500 0.500000
vt 0.750000 0.500000
vt 0.750000 0.750000
vt 0.687500 0.750000
vt 0.187500 0.500000
vt 0.250000 0.500000
vt 0.250000 0.750000
vt 0.187500 0.750000
vt 0.375000 0.812500
vt 0.625000 0.812500
vt 0.625000 0.875000
vt 0.375000 0.875000
vt 0.375000 0.312500
vt 0.625000 0.312500
vt 0.625000 0.375000
vt 0.375000 0.375000
vt 0.125000 0.500000
vt 0.125000 0.750000
vn -0.8250 -0.5647 -0.0212
vn 0.0132 0.0181 -0.9997
vn 0.8250 0.5647 0.0211
vn -0.0132 -0.0181 0.9997
vn -0.0478 -0.9987 -0.0187
vn -0.9392 0.3432 -0.0062
vn -0.4692 0.8830 0.0098
vn 0.6852 -0.7284 -0.0041
vn 0.0478 0.9987 0.0187
vn 0.4692 -0.8830 -0.0098
vn 0.9392 -0.3432 0.0062
vn -0.6852 0.7284 0.0041
usemtl (null)
s 1
f 45/91/29 46/92/29 47/93/29 48/94/29
f 49/95/30 50/96/30 51/97/30 52/98/30
f 52/98/31 51/97/31 53/99/31 54/100/31
f 55/101/32 56/102/32 46/103/32 45/104/32
f 49/105/33 52/98/33 54/100/33 57/106/33
f 58/107/34 47/108/34 46/109/34 56/110/34
f 50/111/35 59/112/35 60/113/35 61/114/35
f 62/115/36 63/116/36 64/117/36 55/118/36
f 57/119/32 61/120/32 60/121/32 64/122/32
f 62/123/30 58/124/30 59/125/30 63/126/30
f 54/100/32 53/99/32 61/120/32 57/119/32
f 51/97/37 50/111/37 61/114/37 53/99/37
f 63/116/38 49/105/38 57/106/38 64/117/38
f 63/126/30 59/125/30 50/96/30 49/95/30
f 48/94/30 47/93/30 58/124/30 62/123/30
f 48/127/39 62/115/39 55/118/39 45/128/39
f 59/112/40 58/107/40 56/110/40 60/113/40
f 64/122/32 60/121/32 56/102/32 55/101/32
o Cube.003_Cube.004
v -0.376261 1.280535 -1.224843
v -0.324968 1.354116 -1.225939
v -0.321893 1.353467 -1.125614
v -0.373186 1.279886 -1.124518
v -0.649657 1.598769 -1.113980
v -0.598364 1.672350 -1.115076
v -0.769322 1.665602 -1.109879
v -0.820615 1.592021 -1.108784
v -0.772397 1.666251 -1.210204
v -0.823690 1.592670 -1.209108
v -0.432394 1.438507 -1.222100
v -0.381101 1.512088 -1.223196
v -0.652732 1.599418 -1.214305
v -0.378026 1.511438 -1.122871
v -0.477732 1.606903 -1.119197
v -0.480807 1.607553 -1.219521
v -0.601439 1.672999 -1.215400
v -0.429319 1.437858 -1.121775
v -0.529025 1.533322 -1.118101
v -0.532100 1.533972 -1.218426
vt 0.375000 0.000000
vt 0.625000 0.000000
vt 0.625000 0.250000
vt 0.375000 0.250000
vt 0.375000 0.437500
vt 0.625000 0.437500
vt 0.625000 0.500000
vt 0.375000 0.500000
vt 0.625000 0.750000
vt 0.375000 0.750000
vt 0.375000 0.937500
vt 0.625000 0.937500
vt 0.625000 1.000000
vt 0.375000 1.000000
vt 0.312500 0.500000
vt 0.312500 0.750000
vt 0.812500 0.500000
vt 0.875000 0.500000
vt 0.875000 0.750000
vt 0.812500 0.750000
vt 0.687500 0.500000
vt 0.750000 0.500000
vt 0.750000 0.750000
vt 0.687500 0.750000
vt 0.187500 0.500000
vt 0.250000 0.500000
vt 0.250000 0.750000
vt 0.187500 0.750000
vt 0.375000 0.812500
vt 0.625000 0.812500
vt 0.625000 0.875000
vt 0.375000 0.875000
vt 0.375000 0.312500
vt 0.625000 0.312500
vt 0.625000 0.375000
vt 0.375000 0.375000
vt 0.125000 0.500000
vt 0.125000 0.750000
vn 0.8198 -0.5719 -0.0288
vn 0.0306 -0.0065 0.9995
vn -0.8198 0.5719 0.0288
vn -0.0306 0.0065 -0.9995
vn 0.0392 -0.9992 -0.0077
vn 0.9418 0.3351 -0.0267
vn 0.4766 0.8791 -0.0089
vn -0.6912 -0.7225 0.0165
vn -0.0392 0.9992 0.0077
vn -0.4766 -0.8791 0.0089
vn -0.9418 -0.3351 0.0267
vn 0.6912 0.7225 -0.0165
usemtl (null)
s 1
f 65/129/41 66/130/41 67/131/41 68/132/41
f 69/133/42 70/134/42 71/135/42 72/136/42
f 72/136/43 71/135/43 73/137/43 74/138/43
f 75/139/44 76/140/44 66/141/44 65/142/44
f 69/143/45 72/136/45 74/138/45 77/144/45
f 78/145/46 67/146/46 66/147/46 76/148/46
f 70/149/47 79/150/47 80/151/47 81/152/47
f 82/153/48 83/154/48 84/155/48 75/156/48
f 77/157/44 81/158/44 80/159/44 84/160/44
f 82/161/42 78/162/42 79/163/42 83/164/42
f 74/138/44 73/137/44 81/158/44 77/157/44
f 71/135/49 70/149/49 81/152/49 73/137/49
f 83/154/50 69/143/50 77/144/50 84/155/50
f 83/164/42 79/163/42 70/134/42 69/133/42
f 68/132/42 67/131/42 78/162/42 82/161/42
f 68/165/51 82/153/51 75/156/51 65/166/51
f 79/150/52 78/145/52 76/148/52 80/151/52
f 84/160/44 80/159/44 76/140/44 75/139/44
