# Blender v2.93.1 OBJ File: 'redgun.blend'
# www.blender.org
mtllib redgun_main.mtl
o Cylinder.001
v -3.808517 -0.000000 -2.353080
v 7.269463 0.000000 -2.353080
v -3.808517 -2.037827 -1.176540
v 7.269463 -2.037827 -1.176540
v -3.808517 -2.037827 1.176540
v 7.269463 -2.037826 1.176540
v -3.808517 -0.000000 2.353080
v 7.269463 0.000001 2.353080
v -3.808517 2.037827 1.176540
v 7.269463 2.037827 1.176540
v -3.808517 2.037827 -1.176540
v 7.269463 2.037827 -1.176540
vt 1.000000 1.000000
vt 0.833333 0.500000
vt 1.000000 0.500000
vt 0.833333 1.000000
vt 0.666667 0.500000
vt 0.666667 1.000000
vt 0.500000 0.500000
vt 0.500000 1.000000
vt 0.333333 0.500000
vt 0.250000 0.490000
vt 0.042154 0.130000
vt 0.457846 0.130000
vt 0.333333 1.000000
vt 0.166667 0.500000
vt 0.166667 1.000000
vt -0.000000 0.500000
vt 0.542154 0.130000
vt 0.542154 0.370000
vt 0.957846 0.370000
vt 0.457846 0.370000
vt 0.042154 0.370000
vt 0.250000 0.010000
vt -0.000000 1.000000
vt 0.750000 0.490000
vt 0.957846 0.130000
vt 0.750000 0.010000
vn 0.0000 -0.5000 -0.8660
vn 0.0000 -1.0000 0.0000
vn 0.0000 -0.5000 0.8660
vn -0.0000 0.5000 0.8660
vn 1.0000 -0.0000 0.0000
vn -0.0000 1.0000 0.0000
vn -0.0000 0.5000 -0.8660
vn -1.0000 -0.0000 0.0000
usemtl None
s off
f 2/1/1 3/2/1 1/3/1
f 4/4/2 5/5/2 3/2/2
f 6/6/3 7/7/3 5/5/3
f 8/8/4 9/9/4 7/7/4
f 2/10/5 10/11/5 6/12/5
f 10/13/6 11/14/6 9/9/6
f 12/15/7 1/16/7 11/14/7
f 9/17/8 11/18/8 3/19/8
f 2/1/1 4/4/1 3/2/1
f 4/4/2 6/6/2 5/5/2
f 6/6/3 8/8/3 7/7/3
f 8/8/4 10/13/4 9/9/4
f 6/12/5 4/20/5 2/10/5
f 2/10/5 12/21/5 10/11/5
f 10/11/5 8/22/5 6/12/5
f 10/13/6 12/15/6 11/14/6
f 12/15/7 2/23/7 1/16/7
f 11/18/8 1/24/8 3/19/8
f 3/19/8 5/25/8 7/26/8
f 7/26/8 9/17/8 3/19/8
o Cylinder.005
v 5.317784 -1.336367 -0.692728
v 5.835404 -4.904055 -1.087993
v 4.477243 -1.514982 -0.181271
v 4.994864 -5.082669 -0.576537
v 4.509565 -1.620407 0.812631
v 5.027186 -5.188095 0.417365
v 5.382428 -1.547218 1.295076
v 5.900049 -5.114905 0.899810
v 6.222969 -1.368603 0.783619
v 6.740590 -4.936290 0.388354
v 6.190647 -1.263177 -0.210282
v 6.708268 -4.830865 -0.605548
vt 1.000000 1.000000
vt 0.833333 0.500000
vt 1.000000 0.500000
vt 0.833333 1.000000
vt 0.666667 0.500000
vt 0.666667 1.000000
vt 0.500000 0.500000
vt 0.500000 1.000000
vt 0.333333 0.500000
vt 0.250000 0.490000
vt 0.042154 0.130000
vt 0.457846 0.130000
vt 0.333333 1.000000
vt 0.166667 0.500000
vt 0.166667 1.000000
vt -0.000000 0.500000
vt 0.542154 0.130000
vt 0.542154 0.370000
vt 0.957846 0.370000
vt 0.457846 0.370000
vt 0.042154 0.370000
vt 0.250000 0.010000
vt -0.000000 1.000000
vt 0.750000 0.490000
vt 0.957846 0.130000
vt 0.750000 0.010000
vn -0.5226 0.0186 -0.8524
vn -0.9892 -0.1454 0.0167
vn -0.4666 -0.1640 0.8691
vn 0.5226 -0.0186 0.8524
vn 0.1427 -0.9837 -0.1090
vn 0.9892 0.1454 -0.0167
vn 0.4666 0.1640 -0.8691
vn -0.1427 0.9837 0.1090
usemtl None
s off
f 14/27/9 15/28/9 13/29/9
f 16/30/10 17/31/10 15/28/10
f 18/32/11 19/33/11 17/31/11
f 20/34/12 21/35/12 19/33/12
f 14/36/13 22/37/13 18/38/13
f 22/39/14 23/40/14 21/35/14
f 24/41/15 13/42/15 23/40/15
f 21/43/16 23/44/16 15/45/16
f 14/27/9 16/30/9 15/28/9
f 16/30/10 18/32/10 17/31/10
f 18/32/11 20/34/11 19/33/11
f 20/34/12 22/39/12 21/35/12
f 18/38/13 16/46/13 14/36/13
f 14/36/13 24/47/13 22/37/13
f 22/37/13 20/48/13 18/38/13
f 22/39/14 24/41/14 23/40/14
f 24/41/15 14/49/15 13/42/15
f 23/44/16 13/50/16 15/45/16
f 15/45/16 17/51/16 19/52/16
f 19/52/16 21/43/16 15/45/16
