# Blender v2.93.1 OBJ File: 'redgun.blend'
# www.blender.org
mtllib redgun_barrel.mtl
o Cylinder.002
v -6.762287 0.855075 -1.481034
v -3.507988 0.855075 -1.481033
v -6.762287 -0.855075 -1.481034
v -3.507988 -0.855075 -1.481033
v -6.762287 -1.710151 -0.000000
v -3.507988 -1.710150 0.000000
v -6.762287 -0.855075 1.481034
v -3.507988 -0.855075 1.481034
v -6.762287 0.855075 1.481033
v -3.507988 0.855075 1.481034
v -6.762287 1.710150 -0.000000
v -3.507988 1.710150 0.000000
vt 1.000000 1.000000
vt 0.833333 0.500000
vt 1.000000 0.500000
vt 0.833333 1.000000
vt 0.666667 0.500000
vt 0.666667 1.000000
vt 0.500000 0.500000
vt 0.500000 1.000000
vt 0.333333 0.500000
vt 0.250000 0.490000
vt 0.042154 0.130000
vt 0.457846 0.130000
vt 0.333333 1.000000
vt 0.166667 0.500000
vt 0.166667 1.000000
vt -0.000000 0.500000
vt 0.542154 0.130000
vt 0.542154 0.370000
vt 0.957846 0.370000
vt 0.457846 0.370000
vt 0.042154 0.370000
vt 0.250000 0.010000
vt -0.000000 1.000000
vt 0.750000 0.490000
vt 0.957846 0.130000
vt 0.750000 0.010000
vn 0.0000 -0.0000 -1.0000
vn 0.0000 -0.8660 -0.5000
vn -0.0000 -0.8660 0.5000
vn -0.0000 0.0000 1.0000
vn 1.0000 0.0000 0.0000
vn -0.0000 0.8660 0.5000
vn 0.0000 0.8660 -0.5000
vn -1.0000 0.0000 -0.0000
usemtl None
s off
f 2/1/1 3/2/1 1/3/1
f 4/4/2 5/5/2 3/2/2
f 6/6/3 7/7/3 5/5/3
f 8/8/4 9/9/4 7/7/4
f 2/10/5 10/11/5 6/12/5
f 10/13/6 11/14/6 9/9/6
f 12/15/7 1/16/7 11/14/7
f 9/17/8 11/18/8 3/19/8
f 2/1/1 4/4/1 3/2/1
f 4/4/2 6/6/2 5/5/2
f 6/6/3 8/8/3 7/7/3
f 8/8/4 10/13/4 9/9/4
f 6/12/5 4/20/5 2/10/5
f 2/10/5 12/21/5 10/11/5
f 10/11/5 8/22/5 6/12/5
f 10/13/6 12/15/6 11/14/6
f 12/15/7 2/23/7 1/16/7
f 11/18/8 1/24/8 3/19/8
f 3/19/8 5/25/8 7/26/8
f 7/26/8 9/17/8 3/19/8
o Cube_Cube.001
v -1.803384 1.714694 0.354555
v -1.803384 2.477125 0.747538
v -1.803384 1.714694 -0.354555
v -1.803384 2.477125 -0.747538
v 0.196616 1.714694 0.354555
v 0.196616 2.477125 0.747538
v 0.196616 1.714694 -0.354555
v 0.196616 2.477125 -0.747538
v -1.803384 1.714694 0.000000
v -1.803384 2.237750 0.000000
v 0.196616 1.714694 0.000000
v 0.196616 2.237750 0.000000
vt 0.625000 0.125000
vt 0.375000 0.250000
vt 0.375000 0.125000
vt 0.625000 0.250000
vt 0.375000 0.500000
vt 0.625000 0.625000
vt 0.375000 0.750000
vt 0.375000 0.625000
vt 0.625000 0.750000
vt 0.375000 1.000000
vt 0.125000 0.750000
vt 0.125000 0.625000
vt 0.875000 0.625000
vt 0.875000 0.500000
vt 0.625000 0.500000
vt 0.125000 0.500000
vt 0.375000 0.000000
vt 0.625000 1.000000
vt 0.875000 0.750000
vt 0.625000 0.000000
vn -1.0000 0.0000 0.0000
vn 0.0000 -0.4582 -0.8889
vn 1.0000 0.0000 0.0000
vn 0.0000 -0.4582 0.8889
vn 0.0000 -1.0000 0.0000
vn 0.0000 0.9524 -0.3050
vn 0.0000 0.9524 0.3050
usemtl None
s off
f 22/27/9 15/28/9 21/29/9
f 16/30/10 19/31/10 15/28/10
f 24/32/11 17/33/11 23/34/11
f 18/35/12 13/36/12 17/33/12
f 23/34/13 13/37/13 21/38/13
f 22/39/14 18/35/14 24/32/14
f 16/40/15 24/32/15 20/41/15
f 19/31/13 21/38/13 15/42/13
f 19/31/11 24/32/11 23/34/11
f 13/43/9 22/27/9 21/29/9
f 22/27/9 16/30/9 15/28/9
f 16/30/10 20/41/10 19/31/10
f 24/32/11 18/35/11 17/33/11
f 18/35/12 14/44/12 13/36/12
f 23/34/13 17/33/13 13/37/13
f 22/39/14 14/45/14 18/35/14
f 16/40/15 22/39/15 24/32/15
f 19/31/13 23/34/13 21/38/13
f 19/31/11 20/41/11 24/32/11
f 13/43/9 14/46/9 22/27/9
