# Blender v2.93.1 OBJ File: 'redgreenblue_map1.blend'
# www.blender.org
mtllib room1floor.mtl
o Plane_Plane.011
v -5.000000 -0.000001 5.000000
v 15.000000 -0.000001 5.000000
v 15.000000 0.000001 -5.000000
v -5.000000 0.000001 -5.000000
vt 0.000000 0.000000
vt 1.000000 0.000000
vt 1.000000 1.000000
vt 0.000000 1.000000
vn 0.0000 1.0000 0.0000
usemtl None.001
s 1
f 1/1/1 2/2/1 3/3/1 4/4/1
o Plane_Plane.001
v -15.000000 -0.000001 15.000000
v 5.000000 -0.000001 15.000000
v 5.000000 0.000001 5.000000
v -15.000000 0.000001 5.000000
vt 0.000000 0.000000
vt 1.000000 0.000000
vt 1.000000 1.000000
vt 0.000000 1.000000
vn 0.0000 1.0000 0.0000
usemtl None.003
s 1
f 5/5/2 6/6/2 7/7/2 8/8/2
